<?xml version="1.0" encoding="UTF-8" standalone="no"?>
<!DOCTYPE svg PUBLIC "-//W3C//DTD SVG 1.0//EN" "http://www.w3.org/TR/2001/REC-SVG-20010904/DTD/svg10.dtd">
<!-- 由 Microsoft Visio 11.0, SVG Export, v1.0 產生 4444.svg logo -->
<svg xmlns="http://www.w3.org/2000/svg" xmlns:xlink="http://www.w3.org/1999/xlink" xmlns:ev="http://www.w3.org/2001/xml-events"
		xmlns:v="http://schemas.microsoft.com/visio/2003/SVGExtensions/" width="8.5in" height="2.5in" viewBox="0 0 612 180"
		xml:space="preserve" color-interpolation-filters="sRGB" class="st4">
	<v:documentProperties v:langID="1033" v:metric="true" v:viewMarkup="false"/>

	<style type="text/css">
	<![CDATA[
		.st1 {fill:#0066ff;stroke:#0066ff;stroke-linecap:butt;stroke-width:1.7642}
		.st2 {fill:#ffffff;stroke:none;stroke-linecap:butt;stroke-width:1.7642}
		.st3 {fill:#0082fc;stroke:none;stroke-linecap:butt;stroke-width:1.7642}
		.st4 {fill:none;fill-rule:evenodd;font-size:12px;overflow:visible;stroke-linecap:square;stroke-miterlimit:3}
	]]>
	</style>

	<g v:mID="0" v:index="1" v:groupContext="foregroundPage">
		<title>logo</title>
		<v:pageProperties v:drawingScale="1" v:pageScale="1" v:drawingUnits="19" v:shadowOffsetX="9" v:shadowOffsetY="-9"/>
		<g id="group1-1" transform="translate(136.02,-24.5664)" v:mID="1" v:groupContext="group">
			<title>Bluetooth</title>
			<g id="shape2-2" v:mID="2" v:groupContext="shape" transform="translate(4.7562E-013,-1.41136)">
				<title>工作表.2</title>
				<path d="M17.82 133.43 L23.64 133.43 C34.23 133.43 38.28 138.72 38.28 149.3 C38.28 159.71 34.75 165.18 25.4 165.18
							 L17.99 165.18 L17.99 133.43 L17.82 133.43 ZM17.82 90.91 L24.52 90.91 C32.46 90.91 36.17 95.85 36.17
							 105.55 C36.17 114.2 31.05 118.78 24.17 118.78 L17.64 118.78 L17.64 90.91 L17.82 90.91 ZM0 180 L28.23
							 180 C48.52 180 56.1 167.12 56.1 150.01 C56.1 136.6 50.81 129.54 41.81 125.49 C50.46 121.96 54.16 112.78
							 54.16 103.79 C54.16 86.14 45.69 76.44 26.64 76.44 L0.18 76.44 L0.18 180 L0 180 Z" class="st1"/>
			</g>
			<g id="shape3-4" v:mID="3" v:groupContext="shape" transform="translate(62.9818,-1.41136)">
				<title>工作表.3</title>
				<path d="M16.05 180 L16.05 76.27 L0 76.27 L0 180 L16.05 180 Z" class="st1"/>
			</g>
			<g id="shape4-6" v:mID="4" v:groupContext="shape" transform="translate(89.7976,0)">
				<title>工作表.4</title>
				<path d="M32.28 101.32 L32.28 161.83 C28.58 164.48 25.4 166.77 21.88 166.77 C18.35 166.77 16.05 165 16.05 161.12
							 L16.05 101.32 L0 101.32 L0 163.77 C-0 173.83 4.94 180 13.41 180 C22.76 180 26.11 176.47 32.99 170.83
							 L32.99 178.59 L48.16 178.59 L48.16 101.32 L32.28 101.32 Z" class="st1"/>
			</g>
			<g id="shape5-8" v:mID="5" v:groupContext="shape" transform="translate(148.016,0)">
				<title>工作表.5</title>
				<path d="M16.05 129.72 L16.05 125.66 C16.05 116.84 19.23 112.96 24.88 112.96 C30.7 112.96 33.7 116.67 33.7 125.66
							 L33.7 129.72 L16.05 129.72 ZM50.1 128.49 C50.1 111.55 43.58 99.73 25.05 99.73 C6.7 99.73 -0 111.55 0
							 128.49 L0 151.24 C0 168.18 6.53 180 25.05 180 C43.05 180 49.75 168.89 50.1 152.48 L34.05 152.48 L34.05
							 154.24 C34.05 163.06 30.87 166.94 25.23 166.94 C19.41 166.94 16.41 163.24 16.41 154.24 L16.41 143.13
							 L50.28 143.13 L50.28 128.49 L50.1 128.49 Z" class="st1"/>
			</g>
			<g id="shape6-10" v:mID="6" v:groupContext="shape" transform="translate(453.399,-82.7408)">
				<title>工作表.6</title>
				<path d="M22.58 168.71 C22.58 174.88 17.29 180 11.29 180 C4.94 180 -0 175.06 0 168.71 C-0 162.53 5.12 157.42 11.29
							 157.42 C17.64 157.42 22.58 162.36 22.58 168.71 ZM2.29 168.53 C2.29 173.3 6.17 177.53 11.11 177.53 C16.05
							 177.53 19.94 173.47 19.94 168.71 C19.94 163.77 16.05 159.71 11.11 159.71 C6.35 159.71 2.29 163.77 2.29
							 168.53 ZM13.23 174.88 L9.7 169.41 L9.53 169.41 L9.53 174.88 L7.41 174.88 L7.41 162.36 L11.11 162.36
							 C14.11 162.36 15.35 163.59 15.35 165.53 C15.35 167.65 14.11 168.89 12 169.06 C12.35 169.41 12.7 170.12
							 13.23 170.83 L15.88 174.71 L13.23 174.71 L13.23 174.88 ZM11.11 164.12 L9.7 164.12 L9.7 168 L10.59 168
							 C12.53 168 13.23 166.94 13.23 165.89 C13.23 164.65 12.53 164.12 11.11 164.12 Z" class="st1"/>
			</g>
			<g id="shape7-12" v:mID="7" v:groupContext="shape" transform="translate(203.588,-5.11591E-013)">
				<title>工作表.7</title>
				<path d="M8.64 114.55 L8.64 162.71 C8.64 174.53 15.35 180 27.52 180 C31.58 180 33.34 179.65 35.64 179.12 L35.64 165.36
							 L30.34 165.36 C26.64 165.36 24.88 163.06 24.88 159.01 L24.88 114.55 L35.64 114.55 L35.64 101.32 L24.88
							 101.32 L24.88 80.5 L8.82 80.5 L8.82 101.32 L0 101.32 L0 114.55 L8.64 114.55 Z" class="st1"/>
			</g>
			<g id="shape8-14" v:mID="8" v:groupContext="shape" transform="translate(245.753,0)">
				<title>工作表.8</title>
				<path d="M33.87 154.07 C33.87 162.89 30.7 166.77 25.05 166.77 C19.23 166.77 16.23 163.06 16.23 154.07 L16.23 125.66
							 C16.23 116.84 19.41 112.96 25.05 112.96 C30.87 112.96 33.87 116.67 33.87 125.66 L33.87 154.07 ZM0 151.24
							 C0 168.18 6.53 180 25.05 180 C43.4 180 50.1 168.18 50.1 151.24 L50.1 128.49 C50.1 111.55 43.58 99.73
							 25.05 99.73 C6.7 99.73 0 111.55 0 128.49 L0 151.24 Z" class="st1"/>
			</g>
			<g id="shape9-16" v:mID="9" v:groupContext="shape" transform="translate(304.148,0)">
				<title>工作表.9</title>
				<path d="M33.87 154.07 C33.87 162.89 30.7 166.77 25.05 166.77 C19.23 166.77 16.23 163.06 16.23 154.07 L16.23 125.66
							 C16.23 116.84 19.41 112.96 25.05 112.96 C30.87 112.96 33.87 116.67 33.87 125.66 L33.87 154.07 ZM0 151.24
							 C0 168.18 6.53 180 25.05 180 C43.4 180 50.1 168.18 50.1 151.24 L50.1 128.49 C50.1 111.55 43.58 99.73
							 25.05 99.73 C6.7 99.73 0 111.55 0 128.49 L0 151.24 Z" class="st1"/>
			</g>
			<g id="shape10-18" v:mID="10" v:groupContext="shape" transform="translate(359.191,-5.11591E-013)">
				<title>工作表.10</title>
				<path d="M8.64 114.55 L8.64 162.71 C8.64 174.53 15.35 180 27.52 180 C31.58 180 33.34 179.65 35.64 179.12 L35.64 165.36
							 L30.34 165.36 C26.64 165.36 24.88 163.06 24.88 159.01 L24.88 114.55 L35.64 114.55 L35.64 101.32 L24.88
							 101.32 L24.88 80.5 L8.82 80.5 L8.82 101.32 L0 101.32 L0 114.55 L8.64 114.55 Z" class="st1"/>
			</g>
			<g id="shape11-20" v:mID="11" v:groupContext="shape" transform="translate(404.883,-1.41136)">
				<title>工作表.11</title>
				<path d="M15.88 180 L15.88 119.31 C19.58 116.67 22.76 114.37 26.29 114.37 C29.81 114.37 32.11 116.14 32.11 120.02
							 L32.11 180 L48.16 180 L48.16 117.55 C48.16 107.49 43.22 101.32 34.75 101.32 C25.4 101.32 22.05 104.85
							 16.05 109.96 L16.05 76.44 L0 76.44 L0 180 L15.88 180 Z" class="st1"/>
			</g>
		</g>
		<g id="group12-22" transform="translate(2.55795E-013,-2.86682)" v:mID="12" v:groupContext="group">
			<title>Bug_1_</title>
			<g id="shape13-23" v:mID="13" v:groupContext="shape" transform="translate(12.5258,-4.76333)">
				<title>工作表.13</title>
				<ellipse cx="42.87" cy="109.079" rx="42.87" ry="70.9207" class="st2"/>
			</g>
			<g id="shape14-25" v:mID="14" v:groupContext="shape">
				<title>Bug</title>
				<path d="M61.39 66.91 L73.74 79.26 L61.39 91.61 L61.39 66.91 ZM61.39 142.95 L73.74 130.6 L61.39 118.25 L61.39 142.95
							 ZM48.16 105.02 L21.35 78.03 L29.11 70.27 L50.46 91.61 L50.46 40.45 L89.27 79.26 L63.69 105.02 L89.44
							 130.78 L50.63 169.59 L50.63 118.25 L29.11 139.6 L21.35 131.84 L48.16 105.02 ZM55.4 180 C88.21 180 110.79
							 164.48 110.79 104.85 C110.79 45.39 88.21 29.87 55.4 29.87 C22.58 29.87 0 45.39 0 105.02 C0 164.48 22.58
							 180 55.4 180 Z" class="st3"/>
			</g>
		</g>
	</g>
</svg>
